:SAMPLES-PER-SECOND 30
:FULLY-SPECIFIED
:DEGREES
451
root  39.3125 36.1392 6.30792 -159.382 -74.3529 161.166
RightUpLeg  14.1523 -6.35473 -9.63404
RightLeg  29.2499 -7.38489 -4.68588
RightFoot  -28.4844 1.70294 12.6397
RightToes  0.000482159 0.542163 -0.142577
Spine  21.0033 4.70834 6.11158
Spine1  -5.85446 6.6699 -7.77156
HEad  -32.5189 2.78867 -9.99511
LeftShoulder1  6.93136 -11.2282 -40.7538
LeftArm  -28.3926 48.1675 -16.217
LeftForeArm  54.3159 -48.3379 -8.70027
LeftHand  -0.25398 0.0180481 5.50724
RightShoulder  5.31478 8.83436 37.0642
RightArm  -1.94326 -15.611 36.9057
RightForeArm  23.5758 69.267 29.0174
RightHand  -4.30931 10.9817 -30.3075
LeftUpLeg  -45.2359 27.0036 -23.5254
LeftLeg  17.5822 2.44327 1.01595
LeftFoot  -9.28487 0.192493 -7.1698
LeftToes  1.06246e-005 4.65855e-005 -8.18502e-006
452
root  36.3097 35.9077 5.43647 -155.491 -76.4089 157.161
RightUpLeg  18.3072 -7.98559 -10.6426
RightLeg  30.3894 -6.65276 -4.43461
RightFoot  -19.5731 0.894917 13.7091
RightToes  0.000482159 0.542163 -0.142577
Spine  16.9423 5.57337 5.08354
Spine1  -5.63444 7.37947 -8.25747
HEad  -25.9231 -0.023401 -4.63638
LeftShoulder1  6.35596 -10.5739 -38.9451
LeftArm  -28.1088 51.2245 -13.3186
LeftForeArm  54.4482 -51.1233 -9.76879
LeftHand  -0.25398 0.0180481 5.50724
RightShoulder  5.13821 8.51461 36.7519
RightArm  -0.959999 -18.5565 38.9616
RightForeArm  21.265 67.5633 26.3876
RightHand  -4.38865 11.3697 -30.1628
LeftUpLeg  -42.1269 21.533 -21.6433
LeftLeg  17.7475 3.07257 1.00083
LeftFoot  -4.80736 0.161043 -3.23498
LeftToes  1.06246e-005 4.65855e-005 -8.18502e-006
453
root  33.4764 35.5414 4.50307 -147.923 -78.4597 148.717
RightUpLeg  18.6665 -8.56501 -11.1461
RightLeg  38.4262 -5.79227 -5.16611
RightFoot  -9.30501 -0.248908 10.6938
RightToes  0.000482159 0.542163 -0.142577
Spine  14.8049 5.99582 2.48623
Spine1  -5.8218 7.36447 -8.28467
HEad  -23.5944 -4.31345 1.79906
LeftShoulder1  5.78625 -9.60056 -37.9989
LeftArm  -27.8929 50.0091 -10.927
LeftForeArm  54.9518 -53.5055 -10.7642
LeftHand  -0.25398 0.0180481 5.50724
RightShoulder  5.06493 8.28751 36.948
RightArm  0.237042 -19.9061 40.7081
RightForeArm  19.7477 65.9156 24.1795
RightHand  -4.27102 11.2467 -29.5999
LeftUpLeg  -40.5385 15.8904 -20.0117
LeftLeg  24.4507 3.05117 1.87591
LeftFoot  1.64769 -0.652419 5.69865
LeftToes  1.06246e-005 4.65855e-005 -8.18502e-006
454
root  31.1532 35.1414 3.53893 -135.21 -79.4165 134.078
RightUpLeg  15.1299 -7.51378 -11.1817
RightLeg  52.276 -4.4558 -6.56936
RightFoot  -3.20436 -0.605294 7.9984
RightToes  0.000482159 0.542163 -0.142577
Spine  16.1063 6.00883 -1.55937
Spine1  -5.9715 6.81475 -8.38898
HEad  -28.1909 -8.98841 8.41166
LeftShoulder1  5.56731 -8.94272 -38.5342
LeftArm  -29.5814 44.5661 -10.6668
LeftForeArm  55.542 -54.5312 -11.2012
LeftHand  -0.25398 0.0180481 5.50724
RightShoulder  5.34145 8.59047 38.1073
RightArm  1.90036 -18.5604 41.1583
RightForeArm  18.6992 64.1976 22.1709
RightHand  -3.9092 10.3991 -28.6026
LeftUpLeg  -39.31 12.7274 -19.4293
LeftLeg  32.9072 2.75333 2.28407
LeftFoot  3.45561 -1.57352 12.0927
LeftToes  1.06246e-005 4.65855e-005 -8.18502e-006
455
root  29.4014 34.9798 2.64572 -120.783 -79.2404 117.829
RightUpLeg  7.80648 -6.72984 -11.1935
RightLeg  67.9312 -3.07205 -9.16255
RightFoot  -2.32545 -0.572428 7.02274
RightToes  0.000482159 0.542163 -0.142577
Spine  19.5641 5.59636 -5.92485
Spine1  -5.65084 5.87286 -8.39769
HEad  -36.7885 -12.3538 13.7356
LeftShoulder1  6.03291 -9.41275 -40.3989
LeftArm  -32.1162 37.1808 -12.1657
LeftForeArm  55.5663 -53.0436 -10.5305
LeftHand  -0.25398 0.0180481 5.50724
RightShoulder  5.8788 9.37441 39.5358
RightArm  3.89755 -15.6514 40.3722
RightForeArm  17.9097 62.0324 19.9892
RightHand  -3.61372 9.60875 -27.8766
LeftUpLeg  -37.7572 11.6748 -19.5847
LeftLeg  39.7681 3.06853 3.1196
LeftFoot  -0.701505 -1.1444 12.0952
LeftToes  1.06246e-005 4.65855e-005 -8.18502e-006
456
root  27.9059 35.0751 1.90414 -109.896 -79.3119 106.21
RightUpLeg  -2.30834 -7.85964 -11.1667
RightLeg  80.5015 -1.43881 -12.7375
RightFoot  -3.4632 -0.414148 5.64926
RightToes  0.000482159 0.542163 -0.142577
Spine  22.7087 4.76507 -8.95628
Spine1  -6.00723 4.31007 -7.42751
HEad  -44.0692 -13.8277 16.5189
LeftShoulder1  6.89358 -10.6198 -42.39
LeftArm  -32.9217 29.9746 -14.8404
LeftForeArm  55.028 -49.0175 -8.92398
LeftHand  -0.25398 0.0180481 5.50724
RightShoulder  6.31293 10.0876 40.2975
RightArm  5.76561 -13.1787 39.2423
RightForeArm  17.0091 59.215 17.6331
RightHand  -3.65614 9.75442 -27.9241
LeftUpLeg  -35.6926 10.7665 -18.8903
LeftLeg  43.557 3.25228 3.70406
LeftFoot  -6.01477 -0.41232 9.72581
LeftToes  1.06246e-005 4.65855e-005 -8.18502e-006
457
root  26.4634 35.3286 1.33896 -101.505 -80.3171 97.7698
RightUpLeg  -13.0601 -10.6727 -11.1753
RightLeg  87.1686 0.0293161 -15.6579
RightFoot  -4.43715 -0.264846 3.89801
RightToes  0.000482159 0.542163 -0.142577
Spine  25.0056 3.61739 -9.97943
Spine1  -7.5867 2.34753 -5.25137
HEad  -47.9528 -13.8177 16.7855
LeftShoulder1  7.70329 -11.7913 -43.8353
LeftArm  -29.677 23.3664 -18.2158
LeftForeArm  54.3803 -44.3719 -7.34456
LeftHand  -0.25398 0.0180481 5.50724
RightShoulder  6.44808 10.378 40.2956
RightArm  6.76045 -12.1532 38.1873
RightForeArm  15.1532 56.3591 15.7534
RightHand  -3.96566 10.6324 -28.5955
LeftUpLeg  -33.2464 9.68584 -17.113
LeftLeg  44.8497 2.64769 3.23323
LeftFoot  -8.78043 -0.138306 8.68544
LeftToes  1.06246e-005 4.65855e-005 -8.18502e-006
458
root  25.0939 35.7282 0.908145 -96.005 -81.4026 91.8975
RightUpLeg  -22.3972 -13.2942 -11.6259
RightLeg  87.9556 0.259848 -17.1171
RightFoot  -4.9847 -0.205998 3.10789
RightToes  0.000482159 0.542163 -0.142577
Spine  27.1608 2.63157 -9.76341
Spine1  -9.07675 0.80543 -2.82784
HEad  -49.9104 -12.7679 15.6831
LeftShoulder1  8.33461 -12.7298 -44.7307
LeftArm  -22.0501 17.234 -21.8684
LeftForeArm  54.4894 -42.2812 -6.70192
LeftHand  -0.25398 0.0180481 5.50724
RightShoulder  6.40598 10.4123 39.9001
RightArm  6.33453 -12.3183 37.0478
RightForeArm  11.8345 54.27 14.7574
RightHand  -4.26387 11.3466 -29.3934
LeftUpLeg  -30.1952 9.23764 -15.0162
LeftLeg  44.9182 2.04429 2.59688
LeftFoot  -10.0796 -0.0298802 8.13442
LeftToes  1.06246e-005 4.65855e-005 -8.18502e-006
459
root  23.7507 36.2473 0.525368 -96.2798 -82.1022 91.3868
RightUpLeg  -29.2304 -14.5002 -12.5237
RightLeg  83.1763 -1.20347 -17.0467
RightFoot  -5.57439 -0.231155 3.8575
RightToes  0.000482159 0.542163 -0.142577
Spine  28.9043 2.0985 -9.25934
Spine1  -9.42717 0.0181038 -0.930877
HEad  -51.37 -10.9015 14.2772
LeftShoulder1  8.77948 -13.4628 -45.0986
LeftArm  -13.6354 12.2628 -25.747
LeftForeArm  57.1369 -44.7844 -7.35153
LeftHand  -0.25398 0.0180481 5.50724
RightShoulder  6.35629 10.4492 39.4462
RightArm  4.94527 -12.9491 35.705
RightForeArm  7.94082 52.7774 14.2456
RightHand  -4.43117 11.6353 -29.9917
LeftUpLeg  -26.3408 9.55786 -13.0257
LeftLeg  44.2835 2.21139 2.71574
LeftFoot  -12.0573 0.112764 6.70939
LeftToes  1.06246e-005 4.65855e-005 -8.18502e-006
460
root  22.3309 36.7794 0.12204 -101.934 -82.8052 96.5795
RightUpLeg  -33.2884 -14.8118 -13.1179
RightLeg  72.5538 -3.70289 -14.2723
RightFoot  -5.52738 -0.314374 5.40823
RightToes  0.000482159 0.542163 -0.142577
Spine  29.5513 1.76801 -8.6356
Spine1  -9.38041 -0.412507 0.725663
HEad  -52.238 -8.44931 12.9664
LeftShoulder1  8.98029 -13.8619 -45.0678
LeftArm  -8.40278 9.20164 -29.7859
LeftForeArm  61.9267 -50.5095 -9.09163
LeftHand  -0.25398 0.0180481 5.50724
RightShoulder  6.27767 10.4431 38.9266
RightArm  3.45853 -13.767 34.4748
RightForeArm  5.26702 51.2597 13.6541
RightHand  -4.53473 11.8129 -30.3528
LeftUpLeg  -22.3587 9.78781 -10.9477
LeftLeg  43.0382 2.89288 3.2918
LeftFoot  -14.1407 0.209007 5.02294
LeftToes  1.06246e-005 4.65855e-005 -8.18502e-006
461
root  20.8084 37.2398 -0.343635 -110.523 -83.6774 105.182
RightUpLeg  -34.5119 -14.9171 -12.9403
RightLeg  56.8172 -5.08204 -8.87385
RightFoot  -3.62522 -0.488812 6.85504
RightToes  0.000482159 0.542163 -0.142577
Spine  29.3873 1.35446 -7.73489
Spine1  -9.71376 -0.774201 2.22844
HEad  -52.42 -5.9205 11.7684
LeftShoulder1  8.96023 -13.8812 -44.9104
LeftArm  -6.16068 7.66785 -33.5803
LeftForeArm  65.3186 -56.6493 -11.607
LeftHand  -0.25398 0.0180481 5.50724
RightShoulder  6.14094 10.3308 38.3307
RightArm  1.97748 -15.0603 33.4986
RightForeArm  4.4156 50.0999 13.1342
RightHand  -4.61758 12.0061 -30.5519
LeftUpLeg  -18.8819 9.45449 -8.64133
LeftLeg  41.7572 3.51851 3.75534
LeftFoot  -15.235 0.210547 3.46928
LeftToes  1.06246e-005 4.65855e-005 -8.18502e-006
462
root  19.1835 37.5681 -0.92395 -118.838 -84.3549 113.202
RightUpLeg  -32.7803 -14.6457 -12.6509
RightLeg  39.1556 -3.94247 -3.71361
RightFoot  -1.47578 -0.71765 8.20264
RightToes  0.000482159 0.542163 -0.142577
Spine  28.9375 0.934716 -6.97466
Spine1  -9.75109 -1.03042 3.19027
HEad  -52.3938 -3.83997 10.5216
LeftShoulder1  8.90124 -13.8176 -44.7729
LeftArm  -5.17214 6.74822 -36.4372
LeftForeArm  65.765 -61.7804 -14.6822
LeftHand  -0.25398 0.0180481 5.50724
RightShoulder  6.07594 10.3238 37.9008
RightArm  0.20763 -16.999 32.4763
RightForeArm  4.07462 50.1738 13.2006
RightHand  -4.69815 12.1885 -30.7497
LeftUpLeg  -15.3209 8.87292 -6.3463
LeftLeg  41.2008 4.2033 4.33059
LeftFoot  -16.2467 0.176293 1.85425
LeftToes  1.06246e-005 4.65855e-005 -8.18502e-006
463
root  17.465 37.6718 -1.65071 -119.878 -84.6015 113.149
RightUpLeg  -28.9075 -13.7065 -13.2578
RightLeg  24.3169 -1.5451 -0.935482
RightFoot  -0.747515 -0.917754 9.81483
RightToes  0.000482159 0.542163 -0.142577
Spine  27.9279 0.64355 -7.30029
Spine1  -8.66417 -1.38564 4.19179
HEad  -52.0199 -2.24087 9.02278
LeftShoulder1  8.94686 -13.9387 -44.6862
LeftArm  -4.72454 6.20251 -37.7959
LeftForeArm  65.6645 -65.9477 -18.2413
LeftHand  -0.25398 0.0180481 5.50724
RightShoulder  6.09625 10.4718 37.5927
RightArm  -1.55467 -19.1956 31.5574
RightForeArm  3.15112 51.2214 13.8005
RightHand  -4.80049 12.3889 -31.0465
LeftUpLeg  -11.0133 8.07647 -4.53591
LeftLeg  41.4807 5.01477 5.1361
LeftFoot  -18.2843 0.118998 0.180243
LeftToes  1.06246e-005 4.65855e-005 -8.18502e-006
464
root  15.7424 37.6178 -2.46462 -110.643 -84.5277 102.655
RightUpLeg  -24.9704 -12.3605 -14.4983
RightLeg  15.8342 0.434532 -0.0631633
RightFoot  1.07621 -1.18569 10.9176
RightToes  0.000482159 0.542163 -0.142577
Spine  26.2461 0.374229 -8.68696
Spine1  -6.78496 -2.19036 6.22778
HEad  -50.6185 -0.756496 7.24338
LeftShoulder1  8.99725 -14.0304 -44.7037
LeftArm  -4.67232 6.26311 -37.5962
LeftForeArm  67.9494 -69.4852 -22.2327
LeftHand  -0.25398 0.0180481 5.50724
RightShoulder  5.93101 10.325 36.8782
RightArm  -2.90971 -21.22 31.6226
RightForeArm  2.58577 52.2175 14.3739
RightHand  -4.85764 12.4973 -31.2154
LeftUpLeg  -6.67268 6.75021 -3.34685
LeftLeg  41.8458 5.17843 5.35043
LeftFoot  -20.2489 -0.0632663 -2.3448
LeftToes  1.06246e-005 4.65855e-005 -8.18502e-006
465
root  14.0997 37.4892 -3.27478 -98.5491 -84.4422 89.7357
RightUpLeg  -22.9316 -11.5269 -14.894
RightLeg  14.8938 2.34912 0.448233
RightFoot  6.0402 -1.46871 9.95615
RightToes  0.000482159 0.542163 -0.142577
Spine  24.5178 -0.135277 -9.30641
Spine1  -5.12681 -3.13399 8.17596
HEad  -48.6123 0.844053 5.29107
LeftShoulder1  8.88435 -13.7538 -44.857
LeftArm  -4.78641 6.55292 -36.3634
LeftForeArm  71.9651 -71.9329 -25.6858
LeftHand  -0.25398 0.0180481 5.50724
RightShoulder  5.47004 9.60685 35.7435
RightArm  -4.16035 -23.0557 32.8386
RightForeArm  3.4413 52.8935 14.6817
RightHand  -4.75518 12.2879 -30.9347
LeftUpLeg  -3.97323 5.3236 -2.11384
LeftLeg  43.4468 4.55144 4.9955
LeftFoot  -20.4226 -0.373284 -6.34892
LeftToes  1.06246e-005 4.65855e-005 -8.18502e-006
